<svg width="58" height="51" viewBox="0 0 58 51" fill="none" xmlns="http://www.w3.org/2000/svg">
<g clip-path="url(#clip0_3:4112)">
<path d="M26.6 30.1C26.2 29.5 26.4 28.8 26.9 28.4C27.5 28 28.2 28.2 28.6 28.7C28.6 28.7 30.9 32 28.9 36C27.5 38.9 23.4 40.5 21.3 41.1C21.9 42.8 23.2 46.2 25.4 48.4H34.7C34.2 37 38.8 30.3 38.8 30.3C39.2 29.7 39.9 29.6 40.5 30C41.1 30.4 41.2 31.1 40.8 31.7C40.8 31.7 36.6 37.8 37.1 48.4H46.7C46 46.1 45.8 43.6 46 41.3C46.2 38.3 47.2 35.4 48.7 33.3C50 31.5 50.8 29.8 51.3 28.3C51.8 26.7 52 25.3 51.8 24.1C51.4 21.6 51.3 17.1 51.3 16.4C51.3 16.1 51.4 15.7 51.6 15.5C52.4 14.7 52.8 13.8 52.9 13C53 12.1 52.8 11.2 52.4 10.2C52.3 9.99998 52.2 9.69998 52.2 9.49998C52.3 8.09998 52 6.79998 51.4 5.59998C50.9 4.59998 50.2 3.69998 49.3 2.99998C49 3.39998 48.9 3.79998 48.8 4.19998C48.6 4.99998 48.6 5.89998 48.6 6.99998C48.6 7.09998 48.6 7.09998 48.6 7.19998C48.5 7.89998 47.9 8.39998 47.2 8.29998C46.6 8.19998 46 8.19998 45.7 8.29998C45.4 8.39998 45.1 8.69998 44.8 9.09998C44.8 9.19998 44.7 9.29998 44.6 9.29998C44.1 9.79998 43.4 9.79998 42.9 9.29998C42.2 8.59998 41.4 8.09998 40.5 7.79998C39.9 7.59998 39.3 7.39998 38.7 7.29998C38.7 8.09998 38.8 8.89998 39.1 9.69998C39.4 10.7 40 11.6 40.9 12.2C41.3 12.4 41.6 12.9 41.6 13.4C41.5 14 41.7 14.5 42 15C42.5 15.7 43.3 16.3 44.1 16.7C44.2 16.7 44.2 16.8 44.3 16.8C44.9 17.2 45 17.9 44.6 18.5C44.6 18.5 43.3 20.6 39.5 22.6C37.6 23.6 35.5 24.2 32.9 24.5C30.5 24.8 27.6 24.9 24.2 25C21.3 25.1 19.1 26.6 17.4 28.6C17 29.1 16.6 29.7 16.2 30.2C16.2 30.2 16.2 30.3 16.1 30.3C15 32 14.1 33.8 13.5 35.3C12 38.7 9.09997 40.5 7.59997 41.3C7.69997 41.9 7.99997 42.7 8.29997 43.6C8.79997 44.9 10.4 47.3 11.1 48.3H22.1C19.6 44.8 18.5 40.5 18.5 40.5C18.3 39.8 18.8 39.2 19.4 39C19.4 39 25.3 37.7 26.6 34.9C28.1 32.2 26.6 30.1 26.6 30.1ZM49.4 48.4H55.9C56.6 48.4 57.1 49 57.1 49.6C57.1 50.3 56.5 50.8 55.9 50.8H3.29997C2.59997 50.8 2.09997 50.2 2.09997 49.6C2.09997 48.9 2.69997 48.4 3.29997 48.4H8.29997C7.49997 47.2 6.59997 45.7 6.19997 44.6C5.39997 42.5 5.19997 40.8 5.19997 40.8C5.09997 40.2 5.49997 39.6 6.09997 39.4C6.59997 39.2 9.99997 37.7 11.5 34.3C11.6 34.1 11.7 33.9 11.7 33.7C9.89997 34.4 7.59997 34.6 4.99997 33.5C3.39997 32.8 2.19997 31.8 1.39997 30.5C0.59997 29.2 0.0999701 27.6 0.0999701 26C-2.98694e-05 24.4 0.39997 22.8 0.99997 21.3C1.79997 19.4 3.09997 17.6 4.89997 16.5C8.89997 14 13.6 14.4 18.7 14.9C20.6 15.1 22.6 15.2 24.4 15.3C30.6 15.4 31.6 12.3 31.6 12.3C31.8 11.7 32.5 11.3 33.2 11.6C33.8 11.8 34.2 12.5 33.9 13.2C33.9 13.2 32.3 17.9 24.3 17.8C22.2 17.8 20.3 17.6 18.4 17.4C13.7 17 9.29997 16.6 6.09997 18.7C4.79997 19.5 3.79997 20.8 3.19997 22.3C2.69997 23.5 2.49997 24.7 2.49997 26C2.49997 27.2 2.79997 28.3 3.39997 29.3C3.89997 30.2 4.79997 30.9 5.89997 31.3C11.1 33.4 14.3 28.9 14.3 28.9C14.7 28.3 15.2 27.6 15.7 27C17.8 24.5 20.5 22.6 24.3 22.5C27.6 22.4 30.4 22.3 32.7 22C35 21.7 36.8 21.3 38.4 20.4C40.1 19.5 41.1 18.7 41.8 18.1C41.2 17.6 40.6 17.1 40.1 16.4C39.6 15.7 39.2 14.8 39.2 13.8C38 12.9 37.3 11.7 36.8 10.3C36.3 8.89998 36.2 7.29998 36.3 5.79998C36.3 5.09998 36.9 4.59998 37.6 4.59998C38.9 4.59998 40.2 4.89998 41.4 5.29998C42.2 5.59998 42.9 5.99998 43.6 6.49998C44 6.09998 44.4 5.89998 44.9 5.69998C45.3 5.59998 45.7 5.49998 46.2 5.49998C46.2 4.79998 46.3 4.09998 46.4 3.39998C46.7 2.19998 47.2 1.09998 48.3 0.0999767C48.7 -0.300023 49.4 -0.300023 49.9 -2.33054e-05C51.5 1.09998 52.8 2.49998 53.6 4.09998C54.4 5.59998 54.8 7.29998 54.7 8.99998C55.3 10.3 55.5 11.6 55.3 12.9C55.1 14.1 54.6 15.3 53.7 16.4C53.7 17.7 53.8 21.2 54.2 23.3C54.5 24.9 54.3 26.7 53.7 28.6C53.1 30.4 52.1 32.3 50.7 34.3C49.4 36.1 48.7 38.5 48.5 41.1C48.4 43.8 48.7 46.2 49.4 48.4Z" fill="white"/>
</g>
<defs>
<clipPath id="clip0_3:4112">
<rect width="57.2" height="50.9" fill="white"/>
</clipPath>
</defs>
</svg>
