<svg width="123" height="139" viewBox="0 0 123 139" fill="none" xmlns="http://www.w3.org/2000/svg">
<path d="M122.277 48.9233C116.065 50.9263 110.075 53.4302 104.084 56.1343C104.084 55.934 103.973 55.6336 103.641 55.5334C98.2048 52.9294 92.1035 51.4271 86.6678 48.8231C81.3431 46.3193 76.2402 43.2145 71.8029 39.4087C67.6984 35.8032 64.2595 31.6969 61.819 26.9897C58.9347 21.5814 58.491 16.2733 58.1582 10.3643C59.8222 7.05921 61.3752 3.65399 62.9283 0.348936C63.0392 0.0484763 62.4846 -0.15183 62.2627 0.14863C60.044 3.55384 58.1582 7.15936 56.2723 10.7649C55.9395 10.5646 55.3849 10.5646 55.0521 10.865C49.7273 15.2718 45.0682 19.979 39.0778 23.6847C33.5312 27.0899 27.5408 29.8942 21.1067 31.4966C14.8945 33.0991 8.23858 33.7 1.69357 32.9989C-4.85146 32.2978 -10.509 30.1946 -16.2775 27.4905C-18.4961 19.7787 -20.1601 11.8666 -20.9367 3.75415C-21.0476 3.15323 -21.9351 3.15323 -21.9351 3.75415C-21.7132 11.3658 -20.6039 18.8773 -18.6071 26.2886L-18.718 26.3888C-19.1617 26.3888 -19.6055 26.9897 -19.1617 27.2902C-20.9367 32.5983 -22.3788 38.1067 -24.4865 43.3147C-26.927 49.2237 -29.8113 54.9325 -33.2502 60.4409C-39.6842 70.8569 -48.1151 79.3699 -56.4351 88.4838C-65.4206 85.2789 -74.4061 81.9739 -83.6135 79.2697C-83.9463 79.1696 -84.1682 79.6703 -83.8354 79.8707C-75.7373 83.6765 -67.3064 86.8814 -58.7646 89.7858C-57.3225 94.2927 -55.4367 98.5993 -54.4383 103.307C-53.3289 108.314 -52.8852 113.422 -52.9961 118.63C-53.218 128.745 -56.3241 137.759 -59.5412 147.274C-65.8643 149.277 -72.4093 150.879 -78.6215 153.283C-78.9543 153.383 -78.8434 153.984 -78.3997 153.984C-71.4109 153.383 -64.6441 150.979 -58.099 148.776C-58.099 148.776 -57.9881 148.876 -57.8772 148.876C-54.3273 149.677 -50.8884 149.677 -47.4495 151.08C-43.8997 152.582 -40.7936 154.785 -38.3531 157.389C-32.9174 163.098 -31.2534 169.808 -28.1473 176.519C-28.1473 176.619 -28.0363 176.619 -28.0363 176.619C-32.6955 180.925 -37.6875 185.132 -42.9013 189.038C-43.456 189.438 -42.6794 190.24 -42.1248 189.939C-36.2453 186.233 -30.9206 181.927 -25.9286 177.32C-15.2791 173.714 -3.6312 172.512 7.68392 173.915C12.8977 174.616 18.0006 175.818 22.9926 177.52C28.3174 179.323 33.0874 182.127 38.0794 184.431C38.6341 188.136 39.1887 191.842 39.8543 195.548C39.9653 196.149 41.0746 196.048 40.9637 195.448C40.6309 192.243 40.409 188.938 39.9653 185.633C40.1871 185.532 40.409 185.332 40.5199 184.931C41.8511 175.617 53.9427 171.912 62.7064 169.608C70.6936 167.505 78.5698 167.204 86.7788 166.804C93.2129 175.417 98.9813 184.431 104.528 193.645C104.75 194.045 105.637 193.745 105.415 193.344C101.311 184.03 95.8752 175.116 89.663 166.704C89.663 166.603 89.7739 166.603 89.7739 166.503C90.3286 162.798 89.8849 159.092 90.5505 155.286C91.2161 151.28 92.3254 147.374 93.8784 143.568C95.4315 139.862 97.5392 136.257 99.9797 132.952C101.866 130.448 104.084 128.245 106.192 125.841C108.522 126.943 110.851 128.044 113.292 129.046C114.179 129.447 114.845 128.345 114.068 127.844C112.515 126.742 110.851 125.741 109.187 124.839C109.187 124.739 109.187 124.639 109.187 124.639C105.083 113.722 101.755 102.706 100.645 91.0878C100.091 85.5794 99.9797 79.9708 100.202 74.3622C100.423 69.2544 101.422 64.2467 101.755 59.2391C108.743 55.934 115.732 52.8293 122.832 49.7245C123.165 49.5242 122.832 48.8231 122.277 48.9233ZM20.5521 33.7C33.0875 30.6954 46.2884 23.3842 54.6084 14.0699C51.5022 20.5799 48.7289 27.3903 46.0666 34.1006C45.8447 34.1006 45.7337 34.1006 45.5119 34.3009C37.5247 39.7092 29.0939 43.8155 19.3318 46.0188C14.2289 47.1205 8.90417 47.7214 3.57941 47.9218C-0.525085 48.0219 -4.85145 47.421 -8.95595 47.6213C-9.06689 47.5211 -9.06689 47.3208 -9.17782 47.2207C-11.6183 41.5119 -13.7261 35.8032 -15.501 29.9943C-5.29518 36.1037 9.23697 36.4041 20.5521 33.7ZM80.1228 93.3913C81.3431 101.604 84.3383 110.317 89.5521 117.328C86.2241 116.427 83.007 115.525 79.9009 114.824C77.2386 114.123 74.4653 113.622 71.8029 113.021C70.1389 110.518 68.2531 108.214 67.0328 105.51C65.4797 102.205 64.4813 98.6995 64.1485 95.1941C63.4829 89.0847 65.1469 83.7766 67.0328 78.0679C70.3608 76.0648 73.7997 73.9616 77.2386 71.9585C78.6807 71.0572 80.2337 70.2559 81.6759 69.4547C78.6807 76.6657 79.0135 86.0802 80.1228 93.3913ZM76.573 150.979C76.573 150.979 76.573 150.879 76.573 150.979C74.4653 148.776 72.3575 146.573 70.2498 144.369C67.8093 141.866 65.2579 139.362 62.5955 136.958C62.4846 135.356 62.1517 133.853 62.1517 132.151C62.1517 129.647 62.7064 127.243 63.5939 124.94C65.2579 120.833 68.364 117.829 71.692 114.824C71.8029 114.824 71.9138 114.824 72.0247 114.924C78.0151 116.126 84.0055 117.628 89.7739 119.431C84.782 121.935 81.0103 128.946 79.1244 133.252C77.0167 138.16 74.6871 145.471 76.573 150.979ZM-35.136 114.424C-36.0235 108.014 -38.464 100.502 -43.0122 94.9938C-37.7984 96.6964 -32.5846 98.1987 -27.2598 99.6008C-27.1489 99.701 -26.927 99.8012 -26.7052 99.8012C-26.7052 99.9013 -26.7051 100.001 -26.5942 100.102C-25.5958 102.005 -23.71 103.407 -22.4897 105.31C-21.0476 107.813 -20.1601 110.518 -19.8273 113.222C-19.0508 119.031 -20.7148 124.639 -21.0476 130.348C-24.4865 132.151 -27.9254 133.853 -31.4752 135.556C-33.8048 136.658 -36.1344 137.759 -38.464 138.761C-38.6859 138.761 -38.7968 138.761 -39.0187 138.861C-34.8032 131.75 -34.0267 122.235 -35.136 114.424ZM62.0408 96.0955C62.7064 101.404 64.7032 107.813 68.5858 112.32C64.1485 111.519 59.7112 110.818 55.163 110.117C53.0553 106.211 50.8367 103.006 50.5038 98.2989C50.282 94.0924 51.7241 90.4869 53.0553 86.6811C56.7161 84.3775 60.3768 82.074 64.0376 79.7705C61.708 84.8783 61.3752 90.8875 62.0408 96.0955ZM50.6148 126.642C49.3945 125.641 48.0633 124.639 46.8431 123.638C44.5135 121.835 42.073 120.032 39.6325 118.229C39.5215 115.024 40.1871 112.521 42.6276 110.417C46.3994 110.818 50.1711 111.319 53.9427 111.82C50.7257 115.525 49.3945 121.935 50.6148 126.642ZM-18.0524 111.219C-18.6071 108.014 -20.2711 103.206 -23.2662 100.602C-19.2727 101.604 -15.39 102.505 -11.2855 103.307C-10.6199 106.812 -9.39969 110.217 -9.17782 113.923C-9.17782 114.924 -9.84342 121.935 -10.7309 124.739C-13.7261 126.442 -16.6103 128.044 -19.6055 129.647C-17.7196 123.838 -16.9431 117.128 -18.0524 111.219ZM51.946 109.716C49.5054 109.416 47.0649 109.115 44.5135 108.815C44.6244 108.514 44.4026 108.214 44.1807 108.014C44.0698 106.011 42.8495 104.108 42.4058 102.105C41.8511 99.2002 42.2948 96.5962 42.8495 93.6918C42.8495 93.4915 42.8495 93.3913 42.8495 93.2912C45.1791 91.7889 47.6196 90.1864 49.9492 88.6841C46.954 94.9938 47.6196 104.108 51.946 109.716ZM37.7466 117.028C33.1984 113.823 28.5392 110.818 23.5473 108.414C28.9829 109.015 34.5296 109.616 39.9653 110.217C38.4122 112.12 37.4138 114.724 37.7466 117.028ZM-9.73248 103.707C-9.06689 103.807 -8.51222 104.008 -7.84663 104.108C-5.84985 104.508 -3.964 104.809 -1.96721 105.109C-0.968819 107.313 -0.525085 109.516 -0.414154 112.02C-0.303223 114.624 -0.968819 116.927 -2.07814 119.531C-3.18747 120.733 -5.96078 121.935 -8.0685 123.137C-7.7357 121.434 -7.51384 119.832 -7.4029 118.83C-6.84824 114.023 -7.07011 108.114 -9.73248 103.707ZM17.6678 105.81C11.8994 105.109 6.2418 104.408 0.584236 103.507C5.35433 101.404 10.3463 97.1972 11.2338 92.49C13.4524 96.8967 15.5601 101.303 17.6678 105.81ZM11.6775 88.7843C16.6694 89.5855 23.1035 87.5825 27.208 84.4777C24.7675 91.0878 22.1051 97.6979 19.3318 104.208C16.8913 99.1001 14.3399 93.8921 11.6775 88.7843ZM17.446 107.713C12.0103 111.219 6.46365 114.624 0.91703 117.929C2.91382 114.323 1.91543 109.115 -0.0813522 105.41C5.79807 106.311 11.5666 107.012 17.446 107.713ZM16.6694 110.217C14.2289 115.625 11.6775 120.934 9.01511 126.141C8.57137 124.839 7.57298 123.537 6.79646 122.636C5.68713 121.234 4.02315 119.832 2.24822 119.131C7.12926 116.326 11.8994 113.322 16.6694 110.217ZM19.11 109.115C19.5537 110.217 20.1084 111.319 20.5521 112.42C22.327 116.827 23.991 121.234 25.544 125.641C21.7723 123.137 15.4492 124.038 11.1228 126.041C13.8961 120.433 16.5585 114.824 19.11 109.115ZM20.4412 105.81C23.4363 98.7996 26.2096 91.7889 28.872 84.7782C30.7579 88.6841 36.6373 92.5901 41.0746 92.5901C34.1968 96.8967 27.319 101.404 20.4412 105.81ZM28.0955 82.1742C28.0955 82.2743 27.9846 82.3745 27.9846 82.3745C25.1003 83.8768 22.4379 85.3791 19.2209 86.1803C16.3366 86.8814 13.5633 86.6811 10.6791 86.8814C8.79324 83.1757 6.79646 79.5702 4.91061 75.8645C4.91061 75.6642 4.9106 75.5641 4.79967 75.3638C8.23857 78.5687 14.7836 79.1696 19.4428 78.5687C23.7691 78.0679 27.8736 76.3653 31.0907 73.6611C30.0923 76.5656 29.0939 79.3699 28.0955 82.1742ZM4.91061 80.3714C6.46366 83.2759 7.90578 86.0802 9.34791 88.9846C8.68231 93.191 8.01671 96.7966 3.69035 99.701C2.24822 100.602 -0.857887 101.303 -2.07814 102.706C-2.07814 102.605 -2.18907 102.605 -2.18907 102.505C-2.52187 102.105 -3.07654 102.505 -3.07654 103.006C-5.18425 102.605 -7.18104 102.305 -9.28875 101.904C-2.18907 97.4976 3.80128 88.3837 4.91061 80.3714ZM1.02797 119.932C2.58102 121.134 4.24501 122.235 5.46527 123.838C6.13087 124.739 6.68552 125.741 7.12926 126.742C7.35112 127.343 7.46205 127.844 7.79485 128.345C6.35273 131.049 4.91061 133.753 3.35755 136.357C3.35755 133.252 0.584236 129.346 -1.41255 127.644C-2.85467 126.342 -4.96239 125.04 -7.07011 124.639C-4.29679 123.137 -1.63441 121.534 1.02797 119.932ZM9.68069 128.545C9.90257 128.245 10.0135 127.844 10.2354 127.544C12.8977 126.843 15.4492 125.941 18.2225 125.841C21.5505 125.841 23.7691 127.143 26.4315 128.545C27.4299 131.55 28.2064 134.554 29.0939 137.659C22.1051 133.052 12.3431 132.451 5.2434 136.858C6.68552 134.054 8.23858 131.249 9.68069 128.545ZM25.4331 118.63C24.2129 115.325 22.8817 112.12 21.4395 108.915C26.4315 112.42 31.6453 115.625 36.7482 118.93C34.6405 119.231 32.6437 120.032 30.8688 121.234C29.7595 122.035 28.4283 123.037 27.5408 124.239C26.7643 122.436 26.0987 120.533 25.4331 118.63ZM22.6598 106.411C28.6502 102.505 34.6405 98.6995 40.5199 94.7935C39.2997 98.8998 39.6325 105.31 43.1823 107.914C42.7386 108.114 42.4058 108.314 42.073 108.514C35.6389 107.813 29.0939 107.112 22.6598 106.411ZM44.5135 90.2866C43.737 90.7874 42.8495 91.2881 42.073 91.889C39.7434 90.3867 36.9701 89.6857 34.6405 87.9831C32.6437 86.4808 31.4235 84.3775 29.6485 82.6749C30.7579 79.6703 31.8672 76.7659 32.9765 73.7613C35.0842 80.3714 42.073 89.1849 49.2836 87.282C47.6196 88.1834 46.0665 89.2851 44.5135 90.2866ZM32.4219 70.3561C32.2 70.3561 31.9781 70.4562 31.8672 70.6565C28.3174 73.7613 24.2129 76.0648 19.11 76.6657C13.7852 77.3668 9.79163 75.3638 4.79967 74.4624C4.46687 74.3622 4.35594 74.5625 4.35594 74.7628C2.35916 70.8568 0.251442 66.9509 -1.63441 63.0449C4.5778 64.7475 11.7884 64.5472 18.0006 63.5457C21.9942 62.9447 25.7659 61.8431 29.4267 60.4409C32.0891 59.4394 35.417 58.1374 37.6357 56.2345C35.8608 60.9417 34.0858 65.6489 32.4219 70.3561ZM2.24822 75.3638C2.47009 75.8645 2.69196 76.2651 3.02475 76.7659C1.91543 81.3729 1.47169 85.6795 -1.07975 90.0863C-3.6312 94.493 -7.18104 97.8982 -10.9527 101.504C-15.2791 100.602 -19.6055 99.6009 -23.9318 98.4992C-17.3868 94.9938 -12.173 88.6841 -8.73409 82.7751C-6.7373 79.2697 -5.18425 75.4639 -4.29679 71.5579C-3.85306 69.655 -3.18747 67.1512 -3.07654 64.8477C-1.30161 68.4532 0.473305 71.8584 2.24822 75.3638ZM-12.173 127.644C-12.0621 127.744 -11.9511 127.844 -11.8402 127.844C-11.0637 127.944 -10.3981 127.844 -9.84341 127.443C-9.73248 127.443 -9.62154 127.343 -9.51061 127.243C-6.95917 124.239 -1.19069 130.548 -0.192291 132.051C0.584236 133.352 1.1389 134.755 1.36076 136.257C1.47169 137.258 1.47169 138.06 1.91543 138.961C-0.303223 142.567 -2.52187 146.172 -4.96239 149.778C-5.07332 144.77 -7.07011 139.862 -10.3981 135.856C-11.8402 134.154 -14.5026 131.45 -17.165 130.448C-15.501 129.447 -13.837 128.545 -12.173 127.644ZM3.91222 138.961C7.46205 136.958 11.3447 135.656 15.6711 135.556C18.2225 135.556 20.7739 135.956 23.2145 136.858C24.9894 137.459 28.872 139.061 29.8704 140.764C30.7579 144.069 31.5344 147.474 32.2 150.779C32.4219 151.58 32.5328 152.382 32.6437 153.183C24.2129 145.271 6.24179 144.069 -2.6328 151.08C-3.18747 151.18 -3.6312 151.38 -4.18586 151.681C-1.30161 147.474 1.36076 143.268 3.91222 138.961ZM31.5344 137.759C30.536 133.853 29.3157 130.047 28.0955 126.242C29.2048 124.94 30.2032 123.638 31.7563 122.636C33.9749 121.234 36.3045 120.633 38.9669 120.433C39.0778 120.533 39.1887 120.533 39.1887 120.633L39.2997 120.733C41.1855 122.035 43.0714 123.337 44.8463 124.639C46.1775 125.641 47.5087 126.642 48.7289 127.644C44.4026 127.944 40.0762 129.146 36.7482 131.45C34.7514 132.952 32.3109 135.255 31.5344 137.759ZM53.0553 84.7782C52.9444 84.7782 52.9444 84.7782 52.8334 84.7782C52.7225 84.3775 52.2788 84.1772 51.835 84.3775C42.2948 89.0848 36.5264 77.8676 33.7531 71.3576C35.417 66.6504 37.192 61.9432 38.8559 57.236C40.409 62.3438 44.5135 67.051 48.8399 70.3561C51.6132 72.4593 54.6084 74.2621 57.9363 75.5641C59.8222 76.2651 62.3736 77.3668 64.5923 77.5671C60.7096 79.9708 56.9379 82.3745 53.0553 84.7782ZM38.4122 54.0311C38.3013 54.0311 38.3013 54.0311 38.4122 54.0311C35.1952 54.8323 32.4219 57.0357 29.4267 58.2375C25.7659 59.7398 21.8833 60.8415 18.0006 61.5426C10.901 62.7444 4.35594 62.0434 -2.52187 61.2421C-4.51866 57.236 -6.4045 53.1297 -8.29036 49.0234C-4.51865 50.025 -0.192291 49.9248 3.57941 49.9248C9.01511 49.8247 14.5617 49.1236 19.8865 48.0219C28.7611 46.0188 37.6357 42.5135 44.8463 37.2053C44.5135 38.1067 44.0698 39.1083 43.737 40.0096C41.8511 44.6167 40.0762 49.3239 38.4122 54.0311ZM-4.96239 61.0418C-5.40611 61.0418 -5.51705 61.6427 -5.18426 61.8431C-5.07332 61.8431 -4.96239 61.9432 -4.85146 61.9432C-6.07171 64.6474 -5.62798 68.2529 -6.29358 71.0572C-7.18104 74.9631 -8.73409 78.769 -10.8418 82.2743C-14.6135 88.7843 -20.0492 93.191 -25.9286 97.9984C-30.6987 96.7966 -35.3579 95.3944 -40.128 93.9923C-41.792 93.4915 -43.345 92.9907 -44.8981 92.49C-35.5797 91.889 -27.4817 81.7736 -22.6006 75.7644C-19.0508 71.4578 -16.0556 66.7506 -13.837 61.7429C-12.2839 58.2375 -10.2871 53.7306 -10.2871 49.7245C-8.62316 53.4302 -6.84824 57.236 -4.96239 61.0418ZM-20.1601 131.95C-15.6119 131.65 -11.5074 137.459 -9.73248 140.463C-7.62476 144.069 -6.7373 147.775 -6.51544 151.681C-7.51383 153.083 -8.51223 154.485 -9.62155 155.887C-10.9527 157.59 -12.2839 159.292 -13.6151 160.995C-14.9463 155.587 -19.1617 149.677 -23.0444 145.872C-26.0396 142.967 -30.3659 140.063 -34.9142 139.161C-29.9222 136.858 -24.9302 134.454 -20.1601 131.95ZM-6.95918 155.587C-6.84824 155.486 -6.62637 155.386 -6.62637 155.086C-6.4045 154.885 -6.29357 154.585 -6.07171 154.385C-5.96078 154.285 -5.84985 154.184 -5.73891 154.084C-5.51705 154.084 -5.40611 153.984 -5.40611 153.784C-5.07332 153.583 -4.62959 153.283 -4.29679 153.183C-4.18586 153.383 -3.85307 153.483 -3.52026 153.283C-0.0813599 151.881 3.02475 150.078 6.79646 149.277C10.5682 148.476 14.4508 148.376 18.2225 148.976C24.3238 149.978 28.5392 153.083 33.1984 156.288C33.864 159.893 34.5296 163.499 35.0842 167.104C29.3158 161.896 21.2177 158.791 13.2305 157.79C8.57138 157.189 3.80128 157.389 -0.857887 158.191C-4.29679 158.791 -8.62315 159.793 -11.7293 161.596C-10.0653 159.693 -8.51223 157.59 -6.95918 155.587ZM32.4219 140.964C32.5328 140.964 32.6437 140.864 32.6437 140.764C33.4202 139.462 33.6421 137.96 34.4186 136.658C35.6389 134.755 37.5247 133.152 39.7434 132.051C43.0714 130.348 46.8431 129.847 50.5038 129.046C53.8318 131.75 57.1598 134.554 60.2659 137.459C54.7193 136.958 48.5071 139.762 44.5135 142.667C40.8527 145.371 36.5264 149.978 35.528 154.585C34.5296 150.078 33.5312 145.471 32.4219 140.964ZM60.044 134.554C57.8254 132.551 55.4958 130.548 53.0553 128.645V128.545C53.3881 128.345 53.3881 127.944 53.0553 127.744C52.8334 124.94 52.2788 122.235 52.8334 119.231C53.2772 116.927 54.2755 114.824 55.163 112.721C55.4958 112.821 55.8286 112.521 55.9395 112.22C60.4878 112.921 65.1469 113.622 69.6952 114.524C66.0344 116.727 63.372 120.433 61.819 124.038C60.4878 126.843 59.4894 130.949 60.044 134.554ZM67.4765 75.8645C67.2547 75.5641 66.7 75.5641 66.3672 75.8645C64.1485 74.863 61.1534 74.6627 58.9347 73.7613C55.7177 72.4593 52.6116 70.7567 49.9492 68.6535C45.0682 64.8477 42.4058 60.1404 39.6325 55.1328C40.5199 52.7291 41.4074 50.2253 42.2948 47.8216C43.737 44.1159 45.0682 40.4103 46.5103 36.6044C47.9524 43.7153 53.3881 50.6259 58.9347 55.5334C65.3688 61.2421 73.5778 65.5487 82.4524 67.2513C82.3415 67.2513 82.2305 67.3515 82.2305 67.3515C77.3495 70.0556 72.3575 72.8599 67.4765 75.8645ZM-31.4752 61.4424C-25.4849 51.8277 -19.8273 40.7107 -17.6087 29.6939C-15.9447 35.5027 -13.837 41.1113 -11.5074 46.7199C-11.6183 46.8201 -11.8402 46.9202 -11.8402 47.0204C-12.7277 49.0234 -12.8386 51.4271 -13.3933 53.6305C-13.9479 55.8339 -14.7244 57.9371 -15.6119 60.0403C-17.4978 64.5472 -20.1601 68.7536 -23.1553 72.7598C-29.0347 80.4716 -37.0219 89.6857 -47.8932 91.2881C-48.0042 91.2881 -48.0042 91.2881 -48.1151 91.3883C-50.4447 90.5871 -52.8852 89.7858 -55.2148 88.8844C-45.4527 81.5733 -37.5765 71.2575 -31.4752 61.4424ZM-57.9881 146.573C-52.7743 138.26 -50.8884 127.744 -50.7775 118.43C-50.5556 109.616 -51.7759 98.9999 -55.9913 90.6872C-53.218 91.6887 -50.3338 92.5901 -47.5605 93.4915C-47.0058 93.6918 -46.3402 93.8921 -45.7855 94.0924C-44.0106 96.8967 -42.1248 99.5007 -40.6826 102.605C-38.7968 106.712 -37.6875 111.118 -37.1328 115.525C-36.1344 124.339 -38.5749 131.75 -41.792 139.862C-41.9029 140.063 -41.9029 140.263 -41.792 140.463C-46.1183 142.366 -50.5556 144.069 -55.1039 145.772C-56.1023 145.972 -57.1006 146.272 -57.9881 146.573ZM-27.1489 175.517C-27.2598 175.517 -27.3707 175.617 -27.3707 175.617C-28.0363 168.406 -32.0299 160.594 -37.2437 155.286C-40.7936 151.58 -47.4495 147.374 -53.5508 146.973C-48.337 145.07 -43.2341 142.967 -38.2421 140.764C-32.0299 142.166 -27.2598 144.069 -22.9334 148.976C-20.9367 151.28 -19.2727 153.784 -17.7196 156.388C-16.6103 158.291 -15.7228 160.394 -14.3916 162.197C-18.3852 166.804 -22.7116 171.21 -27.1489 175.517ZM7.46205 171.912C-2.74374 170.61 -13.0605 171.411 -22.9334 174.115C-19.7164 170.91 -16.6103 167.505 -13.7261 164.1C-13.5042 164.2 -13.2823 164.3 -13.0605 164.2C-8.84502 163.298 -5.07332 161.195 -0.857887 160.394C3.69035 159.493 8.34951 159.392 12.8977 159.893C21.5505 160.895 28.6502 164.6 35.417 169.207C36.1936 173.714 36.8592 178.221 37.5247 182.828C29.7595 176.418 17.5569 173.113 7.46205 171.912ZM37.6357 167.705C37.192 164.4 36.6373 161.195 35.9717 157.99C36.0826 157.99 36.1936 157.89 36.3045 157.69C37.6357 155.587 38.1903 153.283 39.4106 151.18C40.8527 148.776 42.7386 146.673 44.9572 144.87C47.3977 142.867 50.3929 141.365 53.499 140.363C56.0505 139.562 58.8238 139.262 61.4862 138.661C61.4862 138.761 61.5971 138.761 61.5971 138.861C61.708 138.961 61.819 139.061 61.9299 139.061C63.9267 140.964 65.9235 142.867 67.9203 144.87C69.917 146.873 71.6919 148.876 73.5778 150.879C70.2498 151.08 66.9218 151.681 63.8157 152.281C59.1566 153.183 54.6084 154.585 50.5038 156.588C46.2884 158.791 40.0762 162.998 37.6357 167.705ZM57.3817 169.107C51.5022 171.11 42.073 174.415 39.2997 180.324C38.9669 177.52 38.6341 174.716 38.1903 171.912C39.9653 169.508 40.9637 166.704 43.2932 164.4C45.8447 161.796 49.1727 159.693 52.6116 158.09C56.7161 156.187 61.2643 154.986 65.7016 154.084C68.6968 153.483 71.9138 153.183 74.909 152.482C78.5698 156.688 82.1196 160.895 85.3367 165.301C76.1293 164.3 65.9235 166.303 57.3817 169.107ZM92.1035 142.066C90.2177 146.172 88.9974 150.479 88.2209 154.986C87.7771 157.89 87.2225 161.195 87.6662 164.3C84.5601 160.194 81.2321 156.187 77.7932 152.382C77.9042 152.281 78.126 152.181 78.126 152.081C78.6807 149.477 78.3479 146.873 78.5698 144.269C78.9026 141.064 79.6791 137.96 80.8994 134.855C82.1196 131.85 83.7836 128.946 85.7804 126.242C87.3334 124.038 89.8849 122.135 91.2161 119.832C91.6598 119.932 92.1035 120.132 92.5473 120.232C96.6518 121.635 100.423 123.237 104.306 124.94C98.6485 129.447 94.655 136.257 92.1035 142.066ZM98.4267 92.3898C99.536 102.906 101.977 113.522 106.414 123.437C106.414 123.437 106.303 123.437 106.303 123.537C101.977 121.434 97.4283 119.732 92.7691 118.33C87.8881 110.417 83.8945 102.605 82.4524 93.4915C81.6759 89.0848 81.5649 84.4777 81.8977 79.9708C82.2305 75.9647 83.3399 72.1588 83.8945 68.2529C89.2193 65.3484 94.655 62.6443 100.091 60.0403C96.7627 70.0556 97.3174 82.074 98.4267 92.3898ZM101.422 57.4363C101.2 57.3362 100.867 57.4363 100.867 57.6366C100.867 57.6366 100.867 57.6366 100.867 57.7368C95.3206 60.4409 89.8849 63.2452 84.5601 66.2498C84.5601 65.9493 84.3383 65.6489 83.8945 65.5487C75.1309 63.4455 67.2547 59.84 60.7096 54.1313C54.2756 48.5227 51.1694 42.1129 47.3977 35.1021C48.8399 31.4966 50.282 27.8911 51.835 24.3857C53.2772 20.9805 54.8302 17.5753 56.4942 14.2702C55.9395 23.3842 62.0408 33.1992 68.5858 39.4087C73.1341 43.7153 78.6807 47.3208 84.4492 50.1251C89.8849 52.8293 96.319 55.8339 102.531 57.0357C101.977 57.1359 101.644 57.236 101.422 57.4363Z" fill="white"/>
</svg>
