<svg width="117" height="107" viewBox="0 0 117 107" fill="none" xmlns="http://www.w3.org/2000/svg">
<path opacity="0.13" d="M0.388611 -18.1114C23.2886 -19.0114 46.3886 -18.5114 69.2886 -18.6114C76.0886 -18.6114 82.8886 -18.7114 89.6886 -18.8114C89.8886 -19.0114 90.0886 -19.0114 90.3886 -18.9114C90.4886 -18.9114 90.5886 -18.8114 90.6886 -18.8114C106.489 -19.0114 122.389 -19.2114 138.189 -18.5114C139.089 -18.5114 139.189 -17.3114 138.489 -17.0114C138.989 -12.2114 138.689 -7.31144 138.789 -2.41144C138.789 2.78856 138.789 7.88856 138.789 13.0886C138.789 23.3886 138.789 33.7886 138.789 44.0886C138.789 64.7886 138.889 85.4886 138.189 106.089C138.189 106.489 137.589 106.489 137.589 106.089C137.189 96.1886 137.089 86.3886 136.989 76.4886C133.389 74.5886 130.189 72.8886 125.989 72.6886C121.789 72.4886 118.689 74.2886 114.889 75.5886C114.789 75.5886 114.689 75.5886 114.589 75.5886C112.289 84.0886 109.789 92.4886 106.989 100.689C106.789 101.189 105.989 100.989 106.189 100.489C107.989 91.8886 110.189 83.3886 112.389 74.8886C108.089 71.1886 103.489 68.0886 97.9886 66.4886C95.1886 65.6886 92.2886 65.1886 89.3886 65.0886C87.0886 64.9886 84.6886 65.4886 82.4886 65.2886C76.8886 73.6886 71.4886 82.2886 65.1886 90.1886C64.7886 90.6886 64.0886 90.0886 64.3886 89.5886C69.4886 80.5886 75.5886 72.0886 81.3886 63.4886C79.4886 59.0886 78.0886 54.8886 74.9886 51.0886C73.2886 49.0886 71.3886 47.1886 69.1886 45.6886C67.2886 44.2886 64.9886 43.4886 63.0886 42.0886C62.9886 42.0886 62.9886 41.9886 62.9886 41.9886C53.2886 49.3886 43.5886 56.5886 33.3886 63.1886C32.9886 63.4886 32.4886 62.7886 32.8886 62.4886C41.9886 54.4886 51.6886 47.1886 61.3886 39.8886C60.1886 33.4886 58.0886 27.5886 54.3886 22.0886C52.4886 19.3886 50.2886 16.7886 47.7886 14.6886C45.2886 12.4886 42.2886 11.0886 39.5886 9.18856C30.0886 12.0886 20.7886 15.3886 11.1886 17.8886C10.4886 18.0886 10.2886 17.1886 10.8886 16.8886C19.7886 13.1886 29.1886 10.4886 38.3886 7.68856C38.4886 7.48856 38.5886 7.38856 38.7886 7.28856C38.9886 3.48856 39.7886 -0.111438 39.3886 -4.01144C38.8886 -8.61144 37.2886 -12.7114 35.4886 -16.8114C23.7886 -16.8114 11.9886 -16.9114 0.28862 -17.4114C-0.11138 -17.4114 -0.111389 -18.1114 0.388611 -18.1114ZM69.2886 -16.9114C65.0886 -16.9114 60.9886 -16.9114 56.7886 -16.9114C60.0886 -12.3114 61.9886 -4.71144 60.9886 0.988562C65.2886 -0.211438 69.5886 -1.41144 73.9886 -2.61144C74.2886 -4.51144 74.6886 -6.41144 74.4886 -8.41144C74.1886 -11.7114 72.4886 -14.1114 71.1886 -16.9114C70.5886 -16.9114 69.9886 -16.9114 69.2886 -16.9114ZM75.8886 29.0886C78.6886 26.9886 81.3886 24.8886 84.1886 22.7886C85.8886 21.4886 87.4886 20.1886 89.1886 18.9886C88.2886 14.6886 86.7886 10.6886 84.0886 7.18856C81.2886 3.58856 77.7886 1.98856 74.0886 -0.311438C73.9886 -0.311438 73.7886 -0.311438 73.7886 -0.511438C73.6886 -0.611438 73.5886 -0.611439 73.4886 -0.711439C69.1886 0.488561 64.7886 1.68856 60.4886 2.88856C60.4886 2.98856 60.4886 2.98856 60.3886 3.08856C65.0886 4.68856 69.0886 10.3886 71.3886 14.4886C73.6886 18.5886 76.2886 24.2886 75.8886 29.0886ZM132.589 4.58856C131.989 6.88856 131.489 9.28856 130.889 11.5886C130.689 12.3886 130.489 13.0886 130.289 13.8886C131.189 13.1886 132.989 12.9886 133.889 13.0886C134.989 13.1886 136.089 13.4886 137.089 14.0886C137.089 13.6886 137.089 13.3886 137.089 12.9886C137.089 10.0886 137.089 7.18856 137.089 4.28856C136.689 4.18856 136.389 3.98856 135.989 3.88856C134.989 3.78856 133.989 4.08856 133.189 4.68856C132.989 4.78856 132.689 4.68856 132.589 4.58856ZM108.389 12.5886C109.589 13.6886 111.589 16.0886 111.789 18.1886C114.089 14.7886 116.289 11.4886 118.589 8.08856C118.989 7.48856 119.389 6.88856 119.789 6.38856C119.289 5.28856 118.789 4.18856 117.989 3.28856C117.289 2.48856 116.489 1.78856 115.589 1.28856C114.189 2.38856 112.689 3.48856 111.289 4.58856C108.789 6.48856 106.389 8.38856 103.889 10.2886C105.489 10.5886 107.289 11.5886 108.389 12.5886ZM101.989 11.5886C98.6886 14.1886 95.3886 16.6886 92.0886 19.2886C97.2886 20.7886 101.289 27.0886 102.089 32.4886C104.889 28.2886 107.689 24.1886 110.489 19.9886C110.489 19.9886 110.489 19.9886 110.489 19.8886C109.889 19.1886 109.789 18.3886 109.489 17.5886C108.989 16.2886 108.189 15.1886 107.189 14.1886C106.189 13.2886 104.989 12.5886 103.689 12.0886C103.189 11.8886 102.589 11.7886 101.989 11.5886ZM114.589 -0.711439C116.389 -2.21144 118.289 -3.71144 120.089 -5.11144C120.089 -6.31144 120.289 -7.51144 119.789 -8.81144C119.389 -10.0114 118.589 -10.9114 117.789 -11.7114C114.989 -11.1114 112.289 -10.4114 109.489 -9.81144C110.589 -8.91144 111.589 -7.61144 112.289 -6.71144C113.389 -5.11144 114.389 -2.91144 114.389 -0.811438C114.489 -0.711438 114.489 -0.711439 114.589 -0.711439ZM116.589 0.388561C118.389 1.58856 119.889 3.28856 120.489 5.18856C122.089 2.78856 123.689 0.388562 125.289 -2.01144C124.989 -2.41144 124.689 -2.81144 124.289 -3.11144C123.689 -3.51144 122.989 -3.81144 122.289 -3.91144C120.389 -2.51144 118.489 -1.11144 116.589 0.388561ZM125.089 -4.41144C125.489 -4.21144 125.889 -3.81144 126.189 -3.41144C128.089 -6.21144 130.089 -9.01144 132.089 -11.8114C129.389 -9.51144 126.589 -7.31144 123.789 -5.11144C124.289 -4.91144 124.689 -4.61144 125.089 -4.41144ZM121.589 7.08856C124.289 7.68856 127.189 9.28856 128.789 11.5886C129.689 8.18856 130.489 4.68856 131.289 1.18856C131.089 0.888562 130.889 0.688562 130.489 0.488562C129.489 -0.211438 128.189 -0.511438 126.989 -0.911438C125.189 1.78856 123.389 4.38856 121.589 7.08856ZM137.089 15.6886C135.989 14.9886 134.889 14.4886 133.489 14.4886C132.289 14.4886 131.189 15.3886 129.989 15.1886C128.989 19.3886 127.989 23.5886 126.989 27.7886C129.189 26.9886 131.889 26.9886 133.989 27.6886C135.089 27.9886 136.289 28.6886 137.189 29.5886C137.089 24.8886 137.089 20.2886 137.089 15.6886ZM128.389 13.1886C126.389 10.6886 124.089 8.88856 120.689 8.28856C120.289 8.88856 119.789 9.58856 119.389 10.1886C117.489 13.0886 115.589 15.8886 113.589 18.7886C115.989 18.5886 118.489 19.3886 120.489 20.6886C122.189 21.7886 124.189 23.6886 125.089 25.8886C126.289 21.6886 127.289 17.4886 128.389 13.1886ZM119.989 22.4886C117.689 20.8886 115.189 20.5886 112.489 20.3886C109.389 25.0886 106.189 29.6886 103.089 34.3886C109.289 32.4886 117.689 34.6886 121.489 40.2886C122.489 36.2886 123.489 32.2886 124.489 28.3886C122.989 26.3886 122.289 24.0886 119.989 22.4886ZM119.589 56.6886C125.289 54.2886 133.689 56.2886 136.989 61.5886C136.989 56.3886 136.989 51.0886 136.989 45.8886C134.989 44.0886 133.389 42.3886 130.689 41.6886C127.889 40.9886 125.789 42.0886 123.189 42.4886C121.989 47.1886 120.789 51.8886 119.589 56.6886ZM121.189 41.6886C119.189 39.8886 117.189 38.0886 114.589 36.9886C110.889 35.3886 107.389 35.3886 103.489 35.9886C102.989 36.0886 102.589 35.6886 102.489 35.2886C101.989 35.9886 101.589 36.5886 101.089 37.2886C98.8886 40.5886 96.5886 43.8886 94.3886 47.2886C98.6886 45.7886 103.689 46.1886 107.789 47.9886C111.189 49.4886 115.589 52.6886 117.189 56.5886C118.589 51.5886 119.989 46.5886 121.189 41.6886ZM100.289 35.0886C100.589 34.6886 100.889 34.2886 101.089 33.8886C100.389 30.9886 99.2886 28.2886 97.3886 25.8886C95.3886 23.3886 92.7886 22.2886 90.2886 20.4886C88.8886 21.5886 87.4886 22.5886 86.0886 23.6886C83.6886 25.5886 81.1886 27.4886 78.7886 29.3886C82.0886 30.1886 85.7886 33.5886 87.4886 35.5886C89.9886 38.5886 91.9886 42.9886 92.0886 47.0886C94.9886 43.0886 97.5886 39.0886 100.289 35.0886ZM91.9886 -12.1114C91.6886 -13.8114 90.7886 -15.2114 90.1886 -16.7114C84.4886 -16.8114 78.8886 -16.9114 73.1886 -16.9114C76.0886 -13.6114 77.2886 -7.41144 75.7886 -3.01144C81.0886 -4.41144 86.3886 -5.91144 91.7886 -7.21144C91.9886 -8.91144 92.1886 -10.4114 91.9886 -12.1114ZM91.4886 -5.31144C86.3886 -4.01144 81.3886 -2.71144 76.2886 -1.31144C79.8886 0.0885624 83.2886 3.18856 85.4886 5.98856C88.1886 9.48856 90.0886 13.6886 90.2886 18.0886C93.8886 15.3886 97.3886 12.5886 100.989 9.88856C100.589 6.98856 99.8886 4.28856 98.3886 1.68856C96.6886 -1.01144 94.1886 -2.41144 92.2886 -4.71144C91.7886 -4.71144 91.4886 -5.01144 91.4886 -5.31144ZM106.989 -14.5114C106.989 -15.1114 106.789 -15.9114 106.589 -16.5114C101.889 -16.5114 97.1886 -16.6114 92.4886 -16.7114C93.1886 -15.4114 93.5886 -13.7114 93.7886 -12.5114C93.9886 -11.0114 94.0886 -9.41144 93.7886 -7.81144C97.7886 -8.81144 101.889 -9.81144 105.989 -10.8114H106.089C106.589 -12.0114 107.089 -13.1114 106.989 -14.5114ZM105.089 -8.81144C101.089 -7.81144 97.0886 -6.81144 93.0886 -5.81144C93.0886 -5.71144 92.9886 -5.61144 92.8886 -5.51144C95.6886 -4.71144 98.1886 -1.51144 99.5886 0.888561C100.989 3.28856 101.989 6.08856 102.189 8.88856C105.089 6.68856 107.989 4.38856 110.789 2.18856C111.589 1.58856 112.489 0.888562 113.289 0.188562C113.289 0.0885624 113.289 0.0885616 113.189 -0.0114384C113.089 -0.111438 113.089 -0.211438 113.089 -0.311438C112.489 -2.31144 111.989 -4.21144 110.789 -6.01144C109.789 -7.41144 108.289 -8.31144 107.089 -9.41144C106.489 -9.11144 105.789 -8.91144 105.089 -8.81144ZM116.289 -14.0114C116.289 -15.0114 115.989 -15.7114 115.589 -16.5114C113.089 -16.5114 110.589 -16.5114 108.089 -16.5114C108.289 -16.0114 108.489 -15.4114 108.489 -14.7114C108.589 -13.6114 108.389 -12.4114 107.889 -11.3114C110.689 -12.0114 113.489 -12.7114 116.189 -13.3114C116.289 -13.6114 116.289 -13.9114 116.289 -14.0114ZM116.889 -16.5114C117.089 -16.2114 117.189 -15.8114 117.289 -15.5114C117.389 -15.1114 117.589 -14.3114 117.489 -13.7114C122.489 -14.9114 127.389 -16.0114 132.489 -16.8114C127.289 -16.6114 122.089 -16.5114 116.889 -16.5114ZM119.189 -12.0114C120.089 -11.3114 120.689 -10.3114 121.089 -9.21144C121.389 -8.41144 121.689 -7.31144 121.589 -6.31144C125.789 -9.71144 129.989 -13.0114 134.389 -15.9114C129.289 -14.4114 124.289 -13.2114 119.189 -12.0114ZM127.589 -1.71144C129.089 -1.51144 130.589 -1.21144 131.689 -0.311438C132.889 -5.11144 134.089 -9.81144 135.589 -14.5114C133.089 -10.1114 130.389 -5.91144 127.589 -1.71144ZM137.189 -16.4114C136.989 -16.2114 136.889 -16.1114 136.789 -16.0114C135.889 -9.91144 134.589 -3.91144 133.189 2.08856C133.289 2.48856 133.289 2.88856 133.089 3.28856C133.889 2.58856 134.889 2.28856 135.889 2.38856C136.189 2.38856 136.589 2.48856 136.989 2.58856C136.989 1.08856 136.989 -0.311438 136.989 -1.81144C137.089 -6.61144 136.789 -11.6114 137.189 -16.4114ZM137.289 44.3886V44.0886C137.289 40.0886 137.189 36.0886 137.189 32.0886C135.589 30.6886 134.489 29.3886 132.189 28.9886C130.289 28.6886 128.489 29.1886 126.589 29.1886C125.689 32.9886 124.789 36.7886 123.789 40.5886C127.789 38.0886 134.289 40.3886 137.289 44.3886ZM136.989 75.1886C136.989 71.5886 136.989 68.0886 136.989 64.4886C134.589 62.1886 132.789 59.7886 129.489 58.4886C125.989 57.0886 122.689 57.5886 119.189 58.3886C117.889 63.5886 116.489 68.7886 115.089 73.8886C120.789 69.3886 131.589 70.1886 136.989 75.1886ZM99.4886 64.8886C104.489 66.5886 109.289 69.3886 112.789 73.3886C114.089 68.4886 115.389 63.6886 116.689 58.7886C115.489 57.3886 114.689 55.5886 113.389 54.1886C111.789 52.4886 109.989 50.9886 107.889 49.9886C102.889 47.4886 97.9886 48.0886 92.9886 49.4886C89.8886 54.0886 86.7886 58.6886 83.6886 63.3886C88.3886 61.8886 95.2886 63.4886 99.4886 64.8886ZM76.5886 49.9886C79.1886 53.2886 81.7886 57.6886 82.2886 61.9886C85.0886 57.8886 87.7886 53.7886 90.5886 49.6886C89.7886 44.7886 89.3886 40.6886 85.8886 36.6886C84.3886 34.9886 82.6886 33.5886 80.6886 32.4886C79.4886 31.7886 78.1886 31.4886 77.0886 30.8886C72.7886 34.1886 68.5886 37.4886 64.2886 40.7886C68.9886 41.8886 73.6886 46.3886 76.5886 49.9886ZM55.4886 20.3886C59.3886 25.7886 62.0886 32.3886 62.4886 39.0886C66.4886 36.0886 70.3886 33.1886 74.3886 30.1886C73.6886 27.9886 73.5886 25.5886 72.9886 23.3886C72.1886 20.4886 70.9886 17.7886 69.4886 15.1886C68.0886 12.7886 66.2886 10.5886 64.3886 8.58856C62.7886 6.98856 60.8886 5.68856 59.4886 3.98856C59.3886 3.88856 59.2886 3.78856 59.2886 3.68856C59.2886 3.58856 59.1886 3.58856 59.1886 3.48856C53.6886 5.08856 48.2886 6.68856 42.7886 8.28856C42.6886 8.28856 42.5886 8.38856 42.4886 8.38856C47.5886 10.7886 52.3886 16.0886 55.4886 20.3886ZM40.2886 7.18856C40.9886 6.98856 41.5886 6.78856 42.2886 6.58856C47.8886 4.88856 53.4886 3.18856 59.0886 1.58856C58.9886 -1.61144 59.2886 -4.71144 58.6886 -7.91144C58.0886 -11.1114 56.8886 -13.9114 55.7886 -16.9114C49.6886 -16.9114 43.5886 -16.8114 37.4886 -16.8114C41.4886 -10.4114 43.3886 0.188562 40.2886 7.18856Z" fill="white"/>
</svg>
